<?xml version="1.0" encoding="UTF-8" standalone="no"?>
<svg
   viewBox="0 0 363.37 94.73"
   version="1.1"
   id="svg3393"
   sodipodi:docname="logo-light.svg"
   inkscape:version="1.2.2 (732a01da63, 2022-12-09)"
   xmlns:inkscape="http://www.inkscape.org/namespaces/inkscape"
   xmlns:sodipodi="http://sodipodi.sourceforge.net/DTD/sodipodi-0.dtd"
   xmlns="http://www.w3.org/2000/svg"
   xmlns:svg="http://www.w3.org/2000/svg">
  <sodipodi:namedview
     id="namedview3395"
     pagecolor="#505050"
     bordercolor="#eeeeee"
     borderopacity="1"
     inkscape:showpageshadow="0"
     inkscape:pageopacity="0"
     inkscape:pagecheckerboard="0"
     inkscape:deskcolor="#505050"
     showgrid="false"
     inkscape:zoom="2.4912909"
     inkscape:cx="179.82645"
     inkscape:cy="47.365002"
     inkscape:window-width="1680"
     inkscape:window-height="987"
     inkscape:window-x="-8"
     inkscape:window-y="-8"
     inkscape:window-maximized="1"
     inkscape:current-layer="Layer_2" />
  <defs
     id="defs3385">
    <rect
       x="109.58174"
       y="109.18034"
       width="67.033519"
       height="100.34958"
       id="rect8793" />
    <style
       id="style3383">.cls-1{fill:#4c9fe3;}.cls-2{fill:#316a99;}.cls-3{fill:#2d3849;}</style>
  </defs>
  <g
     id="Layer_2"
     data-name="Layer 2"
     transform="matrix(1.0537652,0,0,0.9919001,-8.8748236,-7.9889647)">
    <g
       id="_hkcGc1TWxMQnvrJ-o7pxz"
       data-name=" hkcGc1TWxMQnvrJ-o7pxz"
       transform="matrix(0.79655376,0,0,0.96723821,-83.75764,111.84524)">
      <path
         id="_kCfronMV8leRKdbxpuZJG"
         data-name=" kCfronMV8leRKdbxpuZJG"
         class="cls-3"
         d="m 252.56,21.92 c -168.373333,-14.6133333 -84.18667,-7.306667 0,0 z"
         sodipodi:nodetypes="cc" />
      <g
         id="_2pGrrHDisTubxdFeOQ9h1"
         data-name=" 2pGrrHDisTubxdFeOQ9h1"
         transform="translate(117.57077,-104.41342)">
        <path
           id="_fclVC_gW3knTSnF4jsxLl"
           data-name=" fclVC gW3knTSnF4jsxLl"
           class="cls-1"
           d="m 53.47,19.76 -5.28,-5.09 c -0.869338,-0.843524 -2.258318,-0.821121 -3.1,0.05 L 13.93,47 c -0.840834,0.872076 -0.81395,2.261113 0.06,3.1 l 31.8,30.7 c 0.872076,0.840834 2.261113,0.81395 3.1,-0.06 L 80,48.47 c 0.86164,-0.8498 0.86164,-2.2402 0,-3.09 L 68,33.74 76,25.45 103.56335,50.134958 C 107.28722,53.733654 94.946827,49.634324 91.35,53.36 L 54.16,91.87 C 50.561304,95.593871 44.625676,95.696827 40.9,92.1 L 2.9,55.37 C -0.83636878,51.779011 -0.95720773,45.84 2.63,42.1 L 39.82,3.6 c 3.596309,-3.72935842 9.536518,-3.83239372 13.26,-0.23 l 8.39,8.1 z"
           sodipodi:nodetypes="ccccccccccccccccccccc"
           style="fill:#4c9fe3" />
        <path
           id="_2yC6JlP49xF4W450B5ghS"
           data-name=" 2yC6JlP49xF4W450B5ghS"
           class="cls-2"
           d="m 76.22,75 5.27,5.09 c 0.855576,0.857165 2.244424,0.857165 3.1,0 l 31.16,-32.27 c 0.84083,-0.872076 0.81395,-2.261113 -0.06,-3.1 L 83.9,13.93 c -0.872076,-0.840834 -2.261113,-0.81395 -3.1,0.06 L 49.64,46.25 c -0.857165,0.855576 -0.857165,2.244424 0,3.1 L 61.75,61 53.75,69.29 38.57,54.63 C 34.840642,51.033691 34.737606,45.093482 38.34,41.37 L 75.52,2.86 c 3.598696,-3.7238708 9.534324,-3.82682665 13.26,-0.23 l 53.25314,50.377543 C 145.76365,56.607314 130.61352,48.903113 127.01,52.63 l -37.14,38.5 c -3.599771,3.73051 -9.543113,3.833522 -13.27,0.23 l -8.39,-8.1 z"
           sodipodi:nodetypes="ccccccccccccccccccccc"
           style="fill:#316a99" />
      </g>
    </g>
    <text
       xml:space="preserve"
       style="font-weight:bold;font-size:54.464px;font-family:sans-serif;-inkscape-font-specification:'sans-serif, Bold';fill:#2d3749;fill-opacity:1;stroke-width:0.966509"
       x="146.16016"
       y="73.497452"
       id="text3399"
       transform="scale(0.96650873,1.0346518)"><tspan
         sodipodi:role="line"
         id="tspan3397"
         x="146.16016"
         y="73.497452"
         style="stroke-width:0.966509">DevWall</tspan></text>
    <text
       xml:space="preserve"
       id="text8791"
       style="font-weight:bold;font-size:56.3513px;font-family:sans-serif;-inkscape-font-specification:'sans-serif, Bold';white-space:pre;shape-inside:url(#rect8793);fill:#2d3749;fill-opacity:1" />
  </g>
</svg>
